<?xml version="1.0" standalone="no"?>
<!DOCTYPE svg PUBLIC "-//W3C//DTD SVG 20010904//EN"
 "http://www.w3.org/TR/2001/REC-SVG-20010904/DTD/svg10.dtd">
<svg version="1.0" xmlns="http://www.w3.org/2000/svg"
 width="900.000000pt" height="770.000000pt" viewBox="0 0 900.000000 770.000000"
 preserveAspectRatio="xMidYMid meet">
<metadata>
Created by potrace 1.16, written by Peter Selinger 2001-2019
</metadata>
<g transform="translate(0.000000,770.000000) scale(0.100000,-0.100000)"
fill="#000000" stroke="none">
<path d="M5952 7615 c-131 -178 -321 -639 -356 -860 -20 -131 -40 -473 -32
-551 15 -144 175 -580 220 -597 34 -13 48 47 76 333 16 164 40 417 61 635 26
282 38 376 50 394 7 11 8 -54 5 -204 -13 -499 -19 -1002 -12 -1038 4 -20 11
-37 16 -37 17 0 166 400 195 525 34 149 68 827 47 959 -18 114 -175 492 -209
503 -7 3 -34 -25 -61 -62z"/>
<path d="M7915 6809 c-269 -23 -497 -107 -694 -255 -63 -47 -196 -197 -258
-289 -34 -52 -73 -150 -73 -184 0 -43 -32 -51 665 177 522 172 634 206 705
216 l45 6 -65 -31 c-148 -70 -338 -150 -755 -316 -241 -96 -452 -183 -467
-194 -27 -20 -37 -52 -19 -63 5 -3 125 -13 267 -22 372 -23 474 -9 730 94 236
95 362 169 572 335 164 129 319 301 406 449 l27 47 -33 5 c-53 9 -715 36 -840
35 -62 -1 -158 -6 -213 -10z"/>
<path d="M4519 6678 c-304 -420 -412 -1006 -289 -1571 40 -181 129 -428 220
-606 59 -115 55 -131 74 280 33 727 64 1300 70 1306 11 11 29 -220 46 -577 30
-629 60 -1053 76 -1069 8 -8 37 25 60 70 33 66 107 287 138 410 46 189 59 320
60 614 l1 270 -34 135 c-52 208 -137 426 -226 580 -43 73 -141 200 -155 200
-6 0 -24 -19 -41 -42z"/>
<path d="M6539 5857 c-506 -308 -497 -301 -853 -625 -86 -78 -179 -159 -207
-178 -34 -25 -62 -58 -91 -108 -49 -84 -187 -266 -321 -423 -95 -112 -216
-277 -356 -486 -84 -126 -133 -185 -331 -402 -81 -88 -178 -196 -217 -240 -78
-89 -153 -161 -276 -263 -45 -37 -137 -114 -203 -169 -153 -127 -222 -173
-464 -312 -226 -130 -343 -188 -610 -304 -233 -101 -407 -160 -630 -215 -433
-108 -822 -166 -1270 -192 -470 -26 -602 -41 -667 -72 -32 -15 -49 -69 -39
-123 5 -27 13 -37 34 -42 43 -13 482 -9 662 5 868 67 1517 218 2108 489 286
132 567 296 867 508 214 152 238 171 411 326 94 85 203 182 242 216 78 70 318
347 426 493 38 52 111 145 161 205 89 107 184 235 389 520 154 215 255 336
470 565 279 297 475 446 784 596 167 81 162 76 141 160 -13 50 -57 104 -86
104 -11 0 -44 -15 -74 -33z"/>
<path d="M2955 5523 c-20 -37 -67 -113 -105 -168 -135 -200 -245 -405 -299
-559 -71 -200 -106 -476 -99 -776 4 -170 8 -198 41 -341 69 -294 123 -450 220
-634 38 -73 58 -101 73 -103 13 -2 24 4 28 15 13 34 38 272 71 678 8 105 20
244 25 310 36 416 51 593 60 690 6 61 15 152 20 204 5 51 11 96 14 99 3 3 6
-91 6 -209 0 -206 5 -596 19 -1494 l6 -420 36 55 c69 105 219 383 265 492 56
134 94 280 130 504 23 142 27 201 28 369 1 177 -3 218 -28 360 -47 267 -100
430 -232 718 -78 169 -108 216 -159 243 -78 42 -79 42 -120 -33z"/>
<path d="M6520 5344 c-62 -7 -148 -24 -202 -40 l-52 -16 29 -16 c92 -48 293
-125 597 -228 320 -109 615 -217 628 -231 3 -3 -31 -3 -76 0 -71 5 -230 42
-609 142 -154 40 -547 126 -553 121 -11 -12 50 -85 124 -149 180 -154 364
-264 546 -327 176 -60 396 -83 808 -84 197 -1 329 4 399 13 l103 14 -6 50 c-9
68 -19 83 -77 118 -27 17 -56 44 -64 59 -61 117 -512 389 -813 489 -184 61
-315 82 -542 86 -113 2 -221 1 -240 -1z"/>
<path d="M1230 5329 c-14 -5 -37 -26 -52 -47 -14 -20 -70 -86 -123 -147 -179
-202 -261 -324 -385 -570 -76 -150 -143 -340 -164 -470 -22 -129 -35 -312 -42
-578 -6 -196 -4 -245 10 -314 29 -139 123 -439 194 -616 l67 -167 17 57 c33
109 87 378 143 718 174 1057 232 1385 234 1320 1 -16 -6 -124 -14 -240 -8
-115 -28 -428 -45 -695 -66 -1057 -78 -1265 -75 -1268 5 -6 146 161 197 233
76 108 193 319 237 430 121 303 171 612 174 1080 l2 240 -38 145 c-73 279
-139 487 -219 685 -44 110 -83 203 -87 206 -3 4 -17 2 -31 -2z"/>
<path d="M5745 4088 c-182 -15 -369 -59 -477 -114 -85 -43 -103 -35 247 -120
764 -187 1078 -266 1140 -288 l70 -25 -90 0 c-93 -1 -318 29 -745 98 -494 80
-649 97 -666 70 -3 -6 8 -27 25 -47 17 -20 46 -58 64 -84 17 -26 46 -53 62
-61 17 -8 62 -39 100 -68 116 -87 318 -173 515 -218 150 -34 270 -45 480 -45
226 0 374 18 623 75 105 24 331 92 345 104 7 6 -132 130 -249 224 -200 160
-493 327 -690 395 -247 84 -526 123 -754 104z"/>
<path d="M3890 2419 c-112 -12 -297 -44 -335 -59 -23 -9 -27 -13 -15 -19 8 -5
206 -72 440 -149 1340 -444 1360 -451 1360 -466 0 -2 -24 1 -52 5 -29 5 -114
18 -188 29 -74 12 -245 48 -380 81 -710 174 -1194 279 -1230 267 -16 -5 39
-73 189 -236 186 -200 280 -268 512 -368 357 -153 532 -187 954 -188 293 -1
414 13 635 74 90 25 290 100 290 109 0 4 -73 79 -162 167 -236 233 -552 470
-751 564 -214 101 -437 170 -612 190 -106 12 -534 11 -655 -1z"/>
<path d="M1211 1539 l-33 -10 23 -25 c12 -13 79 -57 148 -98 338 -197 464
-269 676 -389 127 -72 262 -151 300 -177 39 -26 178 -109 310 -185 260 -149
321 -187 375 -235 l35 -31 -37 6 c-65 10 -266 100 -773 345 -556 268 -1069
500 -1112 503 -37 2 -38 1 -35 -32 1 -19 20 -68 42 -110 51 -97 237 -332 289
-365 24 -15 41 -34 43 -48 2 -15 11 -24 25 -26 15 -2 25 -13 29 -28 4 -14 19
-31 34 -39 15 -8 75 -52 134 -100 160 -127 211 -159 412 -257 318 -154 476
-195 844 -217 234 -14 720 -25 758 -16 l32 7 -15 34 c-7 18 -45 78 -83 131
-38 54 -89 131 -113 172 -30 50 -52 77 -70 83 -15 5 -40 28 -55 51 -35 54
-347 365 -408 406 -26 18 -49 43 -52 57 -4 15 -19 30 -38 38 -17 7 -87 57
-156 111 -158 123 -212 160 -330 223 -133 71 -231 108 -406 152 -221 57 -395
80 -594 79 -91 0 -180 -5 -199 -10z"/>
</g>
</svg>
